<mxfile host="Electron" modified="2024-11-05T10:44:04.263Z" agent="Mozilla/5.0 (Windows NT 10.0; Win64; x64) AppleWebKit/537.36 (KHTML, like Gecko) draw.io/22.1.18 Chrome/120.0.6099.199 Electron/28.1.2 Safari/537.36" etag="EakpZeCIlfVbKWDyQEPm" version="22.1.18" type="device">
  <diagram name="Page-1" id="FYgOkj7Zu2ucvwKRSgDE">
    <mxGraphModel dx="1050" dy="621" grid="1" gridSize="10" guides="1" tooltips="1" connect="1" arrows="1" fold="1" page="1" pageScale="1" pageWidth="827" pageHeight="1169" math="0" shadow="0">
      <root>
        <mxCell id="0" />
        <mxCell id="1" parent="0" />
        <mxCell id="Agz5KzWLsm4EZ0m7z-oU-1" value="&lt;b&gt;Spring Rest API SQL AI Travel&lt;/b&gt;" style="rounded=0;whiteSpace=wrap;html=1;fillColor=#f2f2f2;" parent="1" vertex="1">
          <mxGeometry width="860" height="40" as="geometry" />
        </mxCell>
        <mxCell id="WYwiJxzkd9JXpb_cYtM0-1" value="UserController" style="rounded=0;whiteSpace=wrap;html=1;" parent="1" vertex="1">
          <mxGeometry x="450" y="120" width="180" height="70" as="geometry" />
        </mxCell>
        <mxCell id="WYwiJxzkd9JXpb_cYtM0-2" value="Register new account" style="shape=umlActor;verticalLabelPosition=bottom;verticalAlign=top;html=1;outlineConnect=0;" parent="1" vertex="1">
          <mxGeometry x="50" y="120" width="30" height="60" as="geometry" />
        </mxCell>
        <mxCell id="WYwiJxzkd9JXpb_cYtM0-6" value="&lt;font style=&quot;font-size: 14px;&quot;&gt;&lt;b&gt;User&lt;/b&gt;&lt;/font&gt;" style="rounded=0;whiteSpace=wrap;html=1;fillColor=#d5e8d4;strokeColor=#82b366;" parent="1" vertex="1">
          <mxGeometry y="50" width="180" height="40" as="geometry" />
        </mxCell>
        <mxCell id="WYwiJxzkd9JXpb_cYtM0-7" value="&lt;font style=&quot;font-size: 14px;&quot;&gt;&lt;b&gt;API&lt;/b&gt;&lt;/font&gt;" style="rounded=0;whiteSpace=wrap;html=1;fillColor=#dae8fc;strokeColor=#6c8ebf;" parent="1" vertex="1">
          <mxGeometry x="450" y="50" width="180" height="40" as="geometry" />
        </mxCell>
        <mxCell id="WYwiJxzkd9JXpb_cYtM0-8" value="" style="endArrow=classic;html=1;rounded=0;entryX=0;entryY=0.429;entryDx=0;entryDy=0;entryPerimeter=0;" parent="1" source="WYwiJxzkd9JXpb_cYtM0-2" target="WYwiJxzkd9JXpb_cYtM0-1" edge="1">
          <mxGeometry width="50" height="50" relative="1" as="geometry">
            <mxPoint x="390" y="250" as="sourcePoint" />
            <mxPoint x="440" y="200" as="targetPoint" />
          </mxGeometry>
        </mxCell>
        <mxCell id="WYwiJxzkd9JXpb_cYtM0-9" value="POST /api/users/sign-up" style="edgeLabel;html=1;align=center;verticalAlign=middle;resizable=0;points=[];" parent="WYwiJxzkd9JXpb_cYtM0-8" vertex="1" connectable="0">
          <mxGeometry x="-0.2" y="4" relative="1" as="geometry">
            <mxPoint x="16" as="offset" />
          </mxGeometry>
        </mxCell>
        <mxCell id="WYwiJxzkd9JXpb_cYtM0-10" value="" style="endArrow=classic;html=1;rounded=0;exitX=1;exitY=0.5;exitDx=0;exitDy=0;entryX=0;entryY=0.5;entryDx=0;entryDy=0;" parent="1" source="WYwiJxzkd9JXpb_cYtM0-1" target="WYwiJxzkd9JXpb_cYtM0-12" edge="1">
          <mxGeometry width="50" height="50" relative="1" as="geometry">
            <mxPoint x="600" y="250" as="sourcePoint" />
            <mxPoint x="650" y="200" as="targetPoint" />
          </mxGeometry>
        </mxCell>
        <mxCell id="WYwiJxzkd9JXpb_cYtM0-11" value="&lt;font style=&quot;font-size: 14px;&quot;&gt;&lt;b&gt;Postgres&lt;/b&gt;&lt;/font&gt;" style="rounded=0;whiteSpace=wrap;html=1;fillColor=#fff2cc;strokeColor=#d6b656;" parent="1" vertex="1">
          <mxGeometry x="680" y="50" width="180" height="40" as="geometry" />
        </mxCell>
        <mxCell id="WYwiJxzkd9JXpb_cYtM0-12" value="users" style="rounded=0;whiteSpace=wrap;html=1;" parent="1" vertex="1">
          <mxGeometry x="680" y="120" width="180" height="70" as="geometry" />
        </mxCell>
        <mxCell id="WYwiJxzkd9JXpb_cYtM0-15" value="InterestController" style="rounded=0;whiteSpace=wrap;html=1;" parent="1" vertex="1">
          <mxGeometry x="450" y="636" width="180" height="70" as="geometry" />
        </mxCell>
        <mxCell id="WYwiJxzkd9JXpb_cYtM0-16" value="Add interest" style="shape=umlActor;verticalLabelPosition=bottom;verticalAlign=top;html=1;outlineConnect=0;" parent="1" vertex="1">
          <mxGeometry x="40" y="636" width="30" height="60" as="geometry" />
        </mxCell>
        <mxCell id="WYwiJxzkd9JXpb_cYtM0-17" value="" style="endArrow=classic;html=1;rounded=0;entryX=0;entryY=0.429;entryDx=0;entryDy=0;entryPerimeter=0;" parent="1" source="WYwiJxzkd9JXpb_cYtM0-16" target="WYwiJxzkd9JXpb_cYtM0-15" edge="1">
          <mxGeometry width="50" height="50" relative="1" as="geometry">
            <mxPoint x="380" y="766" as="sourcePoint" />
            <mxPoint x="430" y="716" as="targetPoint" />
          </mxGeometry>
        </mxCell>
        <mxCell id="WYwiJxzkd9JXpb_cYtM0-18" value="POST&amp;nbsp;/api/interests" style="edgeLabel;html=1;align=center;verticalAlign=middle;resizable=0;points=[];" parent="WYwiJxzkd9JXpb_cYtM0-17" vertex="1" connectable="0">
          <mxGeometry x="-0.2" y="4" relative="1" as="geometry">
            <mxPoint x="16" as="offset" />
          </mxGeometry>
        </mxCell>
        <mxCell id="WYwiJxzkd9JXpb_cYtM0-19" value="" style="endArrow=classic;html=1;rounded=0;exitX=1;exitY=0.5;exitDx=0;exitDy=0;entryX=0;entryY=0.5;entryDx=0;entryDy=0;" parent="1" source="WYwiJxzkd9JXpb_cYtM0-15" target="WYwiJxzkd9JXpb_cYtM0-20" edge="1">
          <mxGeometry width="50" height="50" relative="1" as="geometry">
            <mxPoint x="590" y="766" as="sourcePoint" />
            <mxPoint x="640" y="716" as="targetPoint" />
          </mxGeometry>
        </mxCell>
        <mxCell id="WYwiJxzkd9JXpb_cYtM0-20" value="interests" style="rounded=0;whiteSpace=wrap;html=1;" parent="1" vertex="1">
          <mxGeometry x="680" y="636" width="180" height="70" as="geometry" />
        </mxCell>
        <mxCell id="WYwiJxzkd9JXpb_cYtM0-21" value="&lt;div style=&quot;color: rgb(0, 0, 0); background-color: rgb(255, 255, 255); font-family: IBMPlexMono, &amp;quot;Courier New&amp;quot;, monospace, Consolas, &amp;quot;Courier New&amp;quot;, monospace; font-weight: normal; font-size: 12px; line-height: 18px;&quot;&gt;&lt;div&gt;&lt;span style=&quot;color: #000000;&quot;&gt;{&lt;/span&gt;&lt;/div&gt;&lt;div&gt;&lt;span style=&quot;color: #000000;&quot;&gt;&amp;nbsp; &amp;nbsp; &lt;/span&gt;&lt;span style=&quot;color: #a31515;&quot;&gt;&quot;name&quot;&lt;/span&gt;&lt;span style=&quot;color: #000000;&quot;&gt;: &lt;/span&gt;&lt;span style=&quot;color: #0451a5;&quot;&gt;&quot;Beachman&quot;&lt;/span&gt;&lt;span style=&quot;color: #000000;&quot;&gt;,&lt;/span&gt;&lt;/div&gt;&lt;div&gt;&amp;nbsp; &amp;nbsp;&amp;nbsp;&lt;span style=&quot;border-color: var(--border-color); color: rgb(163, 21, 21);&quot;&gt;&quot;email&quot;&lt;/span&gt;&lt;span style=&quot;border-color: var(--border-color);&quot;&gt;:&amp;nbsp;&lt;/span&gt;&lt;span style=&quot;border-color: var(--border-color); color: rgb(4, 81, 165);&quot;&gt;&quot;liam@gmail.com&quot;&lt;/span&gt;&lt;span style=&quot;border-color: var(--border-color);&quot;&gt;,&lt;/span&gt;&lt;span style=&quot;color: #000000;&quot;&gt;&lt;br&gt;&lt;/span&gt;&lt;/div&gt;&lt;div&gt;&lt;span style=&quot;color: #000000;&quot;&gt;&amp;nbsp; &amp;nbsp; &lt;/span&gt;&lt;span style=&quot;color: #a31515;&quot;&gt;&quot;password&quot;&lt;/span&gt;&lt;span style=&quot;color: #000000;&quot;&gt;: &lt;/span&gt;&lt;span style=&quot;color: #0451a5;&quot;&gt;&quot;someSecurePassword&quot;&lt;/span&gt;&lt;/div&gt;&lt;div&gt;&lt;span style=&quot;color: #000000;&quot;&gt;}&lt;/span&gt;&lt;/div&gt;&lt;/div&gt;" style="text;whiteSpace=wrap;html=1;" parent="1" vertex="1">
          <mxGeometry x="144" y="160" width="270" height="110" as="geometry" />
        </mxCell>
        <mxCell id="WYwiJxzkd9JXpb_cYtM0-23" value="&lt;div style=&quot;color: rgb(0, 0, 0); background-color: rgb(255, 255, 255); font-family: IBMPlexMono, &amp;quot;Courier New&amp;quot;, monospace, Consolas, &amp;quot;Courier New&amp;quot;, monospace; font-weight: normal; font-size: 12px; line-height: 18px;&quot;&gt;&lt;div&gt;&lt;span style=&quot;color: #000000;&quot;&gt;Authorization: Bearer token&lt;/span&gt;&lt;/div&gt;&lt;div&gt;&lt;span style=&quot;color: #000000;&quot;&gt;{&lt;/span&gt;&lt;/div&gt;&lt;div&gt;&lt;span style=&quot;color: #000000;&quot;&gt;&amp;nbsp; &amp;nbsp; &lt;/span&gt;&lt;span style=&quot;color: #a31515;&quot;&gt;&quot;description&quot;&lt;/span&gt;&lt;span style=&quot;color: #000000;&quot;&gt;: &lt;/span&gt;&lt;span style=&quot;color: #0451a5;&quot;&gt;&quot;Hiking&quot;&lt;/span&gt;&lt;/div&gt;&lt;div&gt;&lt;span style=&quot;color: #000000;&quot;&gt;}&lt;/span&gt;&lt;/div&gt;&lt;/div&gt;" style="text;whiteSpace=wrap;html=1;" parent="1" vertex="1">
          <mxGeometry x="140" y="680" width="230" height="80" as="geometry" />
        </mxCell>
        <mxCell id="WYwiJxzkd9JXpb_cYtM0-24" value="UserController" style="rounded=0;whiteSpace=wrap;html=1;" parent="1" vertex="1">
          <mxGeometry x="450" y="330" width="180" height="190" as="geometry" />
        </mxCell>
        <mxCell id="WYwiJxzkd9JXpb_cYtM0-25" value="Login" style="shape=umlActor;verticalLabelPosition=bottom;verticalAlign=top;html=1;outlineConnect=0;" parent="1" vertex="1">
          <mxGeometry x="50" y="330" width="30" height="60" as="geometry" />
        </mxCell>
        <mxCell id="WYwiJxzkd9JXpb_cYtM0-26" value="" style="endArrow=classic;html=1;rounded=0;entryX=-0.013;entryY=0.158;entryDx=0;entryDy=0;entryPerimeter=0;" parent="1" source="WYwiJxzkd9JXpb_cYtM0-25" target="WYwiJxzkd9JXpb_cYtM0-24" edge="1">
          <mxGeometry width="50" height="50" relative="1" as="geometry">
            <mxPoint x="390" y="460" as="sourcePoint" />
            <mxPoint x="440" y="410" as="targetPoint" />
          </mxGeometry>
        </mxCell>
        <mxCell id="WYwiJxzkd9JXpb_cYtM0-27" value="POST /api/users/sign-in" style="edgeLabel;html=1;align=center;verticalAlign=middle;resizable=0;points=[];" parent="WYwiJxzkd9JXpb_cYtM0-26" vertex="1" connectable="0">
          <mxGeometry x="-0.2" y="4" relative="1" as="geometry">
            <mxPoint x="16" as="offset" />
          </mxGeometry>
        </mxCell>
        <mxCell id="WYwiJxzkd9JXpb_cYtM0-28" value="" style="endArrow=classic;html=1;rounded=0;exitX=1;exitY=0.5;exitDx=0;exitDy=0;entryX=0;entryY=0.5;entryDx=0;entryDy=0;" parent="1" source="WYwiJxzkd9JXpb_cYtM0-24" target="WYwiJxzkd9JXpb_cYtM0-29" edge="1">
          <mxGeometry width="50" height="50" relative="1" as="geometry">
            <mxPoint x="600" y="460" as="sourcePoint" />
            <mxPoint x="650" y="410" as="targetPoint" />
          </mxGeometry>
        </mxCell>
        <mxCell id="WYwiJxzkd9JXpb_cYtM0-29" value="users" style="rounded=0;whiteSpace=wrap;html=1;" parent="1" vertex="1">
          <mxGeometry x="680" y="330" width="180" height="190" as="geometry" />
        </mxCell>
        <mxCell id="WYwiJxzkd9JXpb_cYtM0-30" value="&lt;div style=&quot;color: rgb(0, 0, 0); background-color: rgb(255, 255, 255); font-family: IBMPlexMono, &amp;quot;Courier New&amp;quot;, monospace, Consolas, &amp;quot;Courier New&amp;quot;, monospace; font-weight: normal; font-size: 12px; line-height: 18px;&quot;&gt;&lt;div style=&quot;border-color: var(--border-color);&quot;&gt;{&lt;/div&gt;&lt;div style=&quot;border-color: var(--border-color);&quot;&gt;&amp;nbsp; &amp;nbsp;&amp;nbsp;&lt;span style=&quot;border-color: var(--border-color); color: rgb(163, 21, 21);&quot;&gt;&quot;email&quot;&lt;/span&gt;&lt;span style=&quot;border-color: var(--border-color);&quot;&gt;:&amp;nbsp;&lt;/span&gt;&lt;span style=&quot;border-color: var(--border-color); color: rgb(4, 81, 165);&quot;&gt;&quot;liam@gmail.com&quot;&lt;/span&gt;&lt;span style=&quot;border-color: var(--border-color);&quot;&gt;,&lt;/span&gt;&lt;span style=&quot;border-color: var(--border-color);&quot;&gt;&lt;br style=&quot;border-color: var(--border-color);&quot;&gt;&lt;/span&gt;&lt;/div&gt;&lt;div style=&quot;border-color: var(--border-color);&quot;&gt;&lt;span style=&quot;border-color: var(--border-color);&quot;&gt;&amp;nbsp; &amp;nbsp;&amp;nbsp;&lt;/span&gt;&lt;span style=&quot;border-color: var(--border-color); color: rgb(163, 21, 21);&quot;&gt;&quot;password&quot;&lt;/span&gt;&lt;span style=&quot;border-color: var(--border-color);&quot;&gt;:&amp;nbsp;&lt;/span&gt;&lt;span style=&quot;border-color: var(--border-color); color: rgb(4, 81, 165);&quot;&gt;&quot;someSecurePassword&quot;&lt;/span&gt;&lt;/div&gt;&lt;div style=&quot;border-color: var(--border-color);&quot;&gt;&lt;span style=&quot;border-color: var(--border-color);&quot;&gt;}&lt;/span&gt;&lt;/div&gt;&lt;/div&gt;" style="text;whiteSpace=wrap;html=1;" parent="1" vertex="1">
          <mxGeometry x="144" y="370" width="270" height="80" as="geometry" />
        </mxCell>
        <mxCell id="WYwiJxzkd9JXpb_cYtM0-31" value="" style="endArrow=classic;html=1;rounded=0;exitX=-0.004;exitY=0.676;exitDx=0;exitDy=0;exitPerimeter=0;" parent="1" source="WYwiJxzkd9JXpb_cYtM0-24" edge="1">
          <mxGeometry width="50" height="50" relative="1" as="geometry">
            <mxPoint x="440" y="460" as="sourcePoint" />
            <mxPoint x="80" y="460" as="targetPoint" />
          </mxGeometry>
        </mxCell>
        <mxCell id="WYwiJxzkd9JXpb_cYtM0-32" value="&lt;div style=&quot;color: rgb(0, 0, 0); background-color: rgb(255, 255, 255); font-family: IBMPlexMono, &amp;quot;Courier New&amp;quot;, monospace, Consolas, &amp;quot;Courier New&amp;quot;, monospace; font-weight: normal; font-size: 12px; line-height: 18px;&quot;&gt;&lt;div style=&quot;border-color: var(--border-color);&quot;&gt;{&lt;/div&gt;&lt;div style=&quot;border-color: var(--border-color);&quot;&gt;&amp;nbsp; &amp;nbsp;&amp;nbsp;&lt;span style=&quot;border-color: var(--border-color); color: rgb(163, 21, 21);&quot;&gt;&quot;token&quot;&lt;/span&gt;&lt;span style=&quot;border-color: var(--border-color);&quot;&gt;:&amp;nbsp;&lt;/span&gt;&lt;span style=&quot;border-color: var(--border-color); color: rgb(4, 81, 165);&quot;&gt;&quot;ey....&lt;/span&gt;&lt;span style=&quot;color: rgb(4, 81, 165);&quot;&gt;&quot;&lt;/span&gt;&lt;/div&gt;&lt;div style=&quot;border-color: var(--border-color);&quot;&gt;&lt;span style=&quot;border-color: var(--border-color);&quot;&gt;}&lt;/span&gt;&lt;/div&gt;&lt;/div&gt;" style="text;whiteSpace=wrap;html=1;" parent="1" vertex="1">
          <mxGeometry x="140" y="460" width="270" height="80" as="geometry" />
        </mxCell>
        <mxCell id="hUkLQy1oUTeMT3Tk-Dy7-2" value="https://github.com/ditlef9/travel-backend-spring-sql-ai/" style="text;html=1;strokeColor=none;fillColor=none;align=center;verticalAlign=middle;whiteSpace=wrap;rounded=0;" vertex="1" parent="1">
          <mxGeometry x="560" y="5" width="300" height="30" as="geometry" />
        </mxCell>
        <mxCell id="hUkLQy1oUTeMT3Tk-Dy7-3" value="© 2024 Ditlef9" style="text;html=1;strokeColor=none;fillColor=none;align=left;verticalAlign=middle;whiteSpace=wrap;rounded=0;" vertex="1" parent="1">
          <mxGeometry x="10" y="5" width="290" height="30" as="geometry" />
        </mxCell>
      </root>
    </mxGraphModel>
  </diagram>
</mxfile>
